<svg xmlns="http://www.w3.org/2000/svg" width="60" height="21" viewBox="0 0 60 21">
  <path d="M5.42 20.58L21.03 4.14l1.97-.02-9.19 11.14c2.3-.84 4.98-1.88 7.6-3.06C30.39 8.53 43.49 2.31 54.54.12c2.02-.4 3.73-.33 4.82.47.73.53 1.07 1.35.94 2.39-.33 2.67-2.74 6.04-5.98 7.78l-15.89 7.3c-.62.28-1.16.42-1.6.42-.62 0-.87-.36-.9-.82-.03-.47.34-.89.97-1.18L52.1 9.4c2.82-1.51 4.48-4.12 4.74-5.97.07-.51-.06-.88-.41-1.1-.56-.37-1.6-.37-3.04-.02C43.24 4.75 24.2 13.2 17.84 16.22 13.53 18.2 10.44 19.1 8.21 19.1c-1.56 0-2.75-.52-3.35-1.58-.74-1.3-.3-3.2.94-5.36L.37 20.58H5.42z" fill="#111"/>
</svg>
